<svg width="48" height="48" viewBox="0 0 48 48" fill="none" xmlns="http://www.w3.org/2000/svg">
    <path d="M24 48C10.7452 48 9.39372e-07 37.2548 2.09815e-06 24C2.57717e-06 18.5206 1.83803 13.4715 4.92871 9.43164C2.76678 12.488 1.4961 16.2195 1.4961 20.248C1.49622 30.6045 9.89158 39 20.248 39C30.6044 38.9999 38.9999 30.6044 39 20.248C39 9.89158 30.6045 1.49623 20.2481 1.49609C16.2195 1.49609 12.488 2.76677 9.43164 4.92871C13.4715 1.83803 18.5206 -2.57717e-06 24 -2.09815e-06C37.2548 -9.39372e-07 48 10.7452 48 24C48 37.2548 37.2548 48 24 48Z" fill="#FE2C55"/>
    <path d="M24 0C37.2548 0 48 10.7452 48 24C48 29.4794 46.162 34.5285 43.0713 38.5684C45.2332 35.512 46.5039 31.7805 46.5039 27.752C46.5038 17.3955 38.1084 9 27.752 9C17.3956 9.00013 9.00013 17.3956 9 27.752C9 38.1084 17.3955 46.5038 27.752 46.5039C31.7805 46.5039 35.512 45.2332 38.5684 43.0713C34.5285 46.162 29.4794 48 24 48C10.7452 48 0 37.2548 0 24C0 10.7452 10.7452 0 24 0Z" fill="#00EBFC"/>
    <path d="M43.0713 38.5681C45.2331 35.5117 46.5039 31.7802 46.5039 27.7517C46.5037 20.6442 42.5493 14.4604 36.7207 11.28C33.5404 5.45085 27.356 1.49594 20.2481 1.49585C16.2196 1.49585 12.488 2.76659 9.43164 4.92846C10.8122 3.87225 12.3111 2.96267 13.9043 2.22241C14.0683 2.14627 14.2335 2.07227 14.3994 1.99975C15.101 1.693 15.8201 1.41913 16.5547 1.17944C16.7573 1.11338 16.9611 1.04978 17.166 0.989011C17.451 0.904428 17.738 0.823922 18.0273 0.749753C18.1347 0.722261 18.2427 0.696691 18.3506 0.670652C18.5179 0.630246 18.6858 0.591317 18.8545 0.554441C19.445 0.425447 20.0436 0.318765 20.6494 0.234128C20.8598 0.204706 21.0711 0.177976 21.2832 0.15405C22.175 0.0535675 23.0814 -0.000246319 24 -0.000246239C37.2547 -0.00024508 47.9999 10.745 48 23.9998C48 29.4791 46.1619 34.5283 43.0713 38.5681Z" fill="#FE2C55"/>
    <path d="M4.92871 9.43201C2.76688 12.4884 1.49609 16.22 1.49609 20.2484C1.49632 27.3559 5.45075 33.5397 11.2793 36.7201C14.4596 42.5492 20.644 46.5042 27.752 46.5043C31.7804 46.5043 35.512 45.2335 38.5684 43.0717C37.1878 44.1279 35.6889 45.0375 34.0957 45.7777C33.9317 45.8538 33.7665 45.9278 33.6006 46.0004C32.8991 46.3071 32.1799 46.581 31.4453 46.8207C31.2427 46.8867 31.0389 46.9503 30.834 47.0111C30.549 47.0957 30.262 47.1762 29.9727 47.2504C29.8653 47.2779 29.7573 47.3034 29.6494 47.3295C29.4821 47.3699 29.3141 47.4088 29.1455 47.4457C28.555 47.5747 27.9564 47.6814 27.3506 47.766C27.1402 47.7954 26.9289 47.8221 26.7168 47.8461C25.825 47.9466 24.9186 48.0004 24 48.0004C10.7453 48.0004 0.000200066 37.255 0 24.0004C4.79014e-07 18.5211 1.83814 13.4718 4.92871 9.43201Z" fill="#00EBFC"/>
    <circle cx="24" cy="24" r="20" fill="#F1F1F2"/>
    <path d="M23.2759 11.154C20.9508 11.154 18.7524 12.5725 17.7439 14.689V22.0069L20.8891 23.9436L21.0086 16.3661L26.9499 12.3421C25.9514 11.583 24.5626 11.154 23.2759 11.154ZM29.7256 13.1305C29.3119 13.1306 28.7174 13.1812 28.1982 13.3211L22.5068 17.1653L22.4573 20.4893L28.4675 16.4565L35.7563 20.7693C35.8534 20.3293 35.9255 19.7134 35.9255 19.2614C35.9255 15.8382 33.1189 13.1305 29.7256 13.1305ZM16.2467 15.9869C13.5308 16.766 11.7332 19.1218 11.7531 22.0274C11.7596 22.9119 11.9931 23.8646 12.3724 24.6232L20.0306 28.9962L23.1155 27.0693L16.2467 22.8557V15.9869ZM28.5171 18.2231L26.0214 19.9206L32.5509 24.0535L33.3695 31.4414C35.5716 30.4951 37.2234 28.2829 37.2234 25.7208C37.2234 24.8477 37.0038 23.8838 36.6245 23.055L28.5171 18.2231ZM24.6331 20.8286L22.4164 22.3064L22.4067 24.8419L24.5631 26.1807L26.8595 24.7525L26.7895 22.2062L24.6331 20.8286ZM28.348 23.1853L28.5181 31.1721L22.1977 34.8967C23.3157 35.8947 24.7862 36.4211 26.2373 36.4211C28.7252 36.4211 31.0535 34.8766 31.952 32.5604L31.1334 24.9226L28.348 23.1853ZM26.9198 26.4899L20.0607 30.753L13.681 27.1189C13.576 27.5768 13.5011 28.1938 13.5011 28.6657C13.5011 31.9266 16.1668 34.7169 19.4317 34.7965L26.9995 30.2942L26.9198 26.4899Z" fill="black"/>
</svg>
