<svg width="48" height="48" viewBox="0 0 48 48" fill="none" xmlns="http://www.w3.org/2000/svg">
<path fill-rule="evenodd" clip-rule="evenodd" d="M0 24C0 18.5086 1.84431 13.4479 4.9473 9.40365C2.77356 12.4651 1.49562 16.2072 1.49562 20.2478C1.49562 24.7346 3.07138 28.8533 5.69968 32.0808C8.80421 39.1012 15.83 44 24 44C35.0457 44 44 35.0457 44 24C44 15.83 39.1012 8.8042 32.0807 5.69967C28.8533 3.07138 24.7346 1.49562 20.2478 1.49562C16.2072 1.49562 12.4651 2.77356 9.40364 4.94731C13.4479 1.84431 18.5086 -4.80076e-07 24 0C37.2548 2.09815e-06 48 10.7452 48 24C48 37.2548 37.2548 48 24 48C10.7452 48 -2.87532e-06 37.2548 0 24Z" fill="#FE2C55"/>
<path fill-rule="evenodd" clip-rule="evenodd" d="M48 24C48 29.4914 46.1557 34.552 43.0527 38.5963C45.2265 35.5348 46.5044 31.7927 46.5044 27.7522C46.5044 23.2654 44.9286 19.1467 42.3003 15.9192C39.1958 8.89878 32.17 4 24 4C12.9543 4 4 12.9543 4 24C4 32.17 8.89878 39.1958 15.9192 42.3003C19.1467 44.9286 23.2654 46.5044 27.7522 46.5044C31.7927 46.5044 35.5348 45.2265 38.5963 43.0527C34.552 46.1557 29.4914 48 24 48C10.7452 48 0 37.2548 0 24C0 10.7452 10.7452 0 24 0C37.2548 0 48 10.7452 48 24Z" fill="#00EBFC"/>
<path fill-rule="evenodd" clip-rule="evenodd" d="M47.4999 19.1029C47.8277 20.6839 47.9999 22.3219 47.9999 24C47.9999 29.4915 46.1556 34.5522 43.0526 38.5964C45.2263 35.535 46.5043 31.7928 46.5043 27.7522C46.5043 23.2655 44.9285 19.1468 42.3003 15.9193C40.2885 11.3699 36.63 7.71146 32.0806 5.69967C28.8532 3.07139 24.7345 1.49565 20.2477 1.49565C16.2071 1.49564 12.465 2.77359 9.40356 4.94733C9.78716 4.65302 10.1799 4.37002 10.5813 4.09885C14.4117 1.51107 19.0294 3.05176e-05 23.9999 3.05176e-05C25.6568 3.05176e-05 27.2744 0.167925 28.8368 0.487627C38.1907 2.40172 45.5624 9.7575 47.4999 19.1029Z" fill="#FE2C55"/>
<g filter="url(#filter0_d_1130_899)">
<path d="M24.2759 16V33.0345M24.2759 33.0345L32.5517 24.6593M24.2759 33.0345L16 24.6593" stroke="#141414" stroke-width="3" stroke-linecap="round" stroke-linejoin="round"/>
</g>
<defs>
<filter id="filter0_d_1130_899" x="8.5" y="9.5" width="31.5518" height="32.0345" filterUnits="userSpaceOnUse" color-interpolation-filters="sRGB">
<feFlood flood-opacity="0" result="BackgroundImageFix"/>
<feColorMatrix in="SourceAlpha" type="matrix" values="0 0 0 0 0 0 0 0 0 0 0 0 0 0 0 0 0 0 127 0" result="hardAlpha"/>
<feOffset dy="1"/>
<feGaussianBlur stdDeviation="3"/>
<feComposite in2="hardAlpha" operator="out"/>
<feColorMatrix type="matrix" values="0 0 0 0 0.568627 0 0 0 0 0.576471 0 0 0 0 0.592157 0 0 0 0.5 0"/>
<feBlend mode="normal" in2="BackgroundImageFix" result="effect1_dropShadow_1130_899"/>
<feBlend mode="normal" in="SourceGraphic" in2="effect1_dropShadow_1130_899" result="shape"/>
</filter>
</defs>
</svg>
