<svg fill="white" font-size="20px" viewBox="0 0 48 48" xmlns="http://www.w3.org/2000/svg" width="1em" height="1em"><path d="M36.68 5.5H11.32c-1.05 0-1.96 0-2.71.06-.8.07-1.58.2-2.33.6a6 6 0 0 0-2.63 2.62 6.1 6.1 0 0 0-.59 2.33C3 11.86 3 12.77 3 13.82v20.36c0 1.05 0 1.96.06 2.71.07.8.2 1.58.6 2.33a6 6 0 0 0 2.62 2.63 6.1 6.1 0 0 0 2.33.59c.75.06 1.66.06 2.71.06h25.36c1.05 0 1.96 0 2.71-.06a6.1 6.1 0 0 0 2.33-.6 6 6 0 0 0 2.63-2.62 6.1 6.1 0 0 0 .59-2.33c.06-.75.06-1.66.06-2.71V13.82c0-1.05 0-1.96-.06-2.71a6.1 6.1 0 0 0-.6-2.33 6 6 0 0 0-2.62-2.63 6.1 6.1 0 0 0-2.33-.59c-.75-.06-1.66-.06-2.71-.06ZM7 29.29l4.96-4.92a4 4 0 0 1 5.7.08L31.1 38.5H11.4a34 34 0 0 1-2.46-.05 2.28 2.28 0 0 1-.85-.17 2 2 0 0 1-.87-.87c-.05-.1-.13-.3-.17-.85A34 34 0 0 1 7 34.1v-4.81ZM27 18.5a5 5 0 1 1 10 0 5 5 0 0 1-10 0Z"></path></svg>