<svg width="48" height="48" viewBox="0 0 48 48" fill="none" xmlns="http://www.w3.org/2000/svg">
    <circle cx="24" cy="24" r="24" fill="#00EBFC"/>
    <g filter="url(#filter0_d_1028_1931)">
        <path fill-rule="evenodd" clip-rule="evenodd" d="M35.8333 13.5808C35.0048 13.5808 34.3333 14.2524 34.3333 15.0808V20.0808H29.3333C28.5048 20.0808 27.8333 20.7524 27.8333 21.5808C27.8333 22.4092 28.5048 23.0808 29.3333 23.0808H35.8333C36.6617 23.0808 37.3333 22.4092 37.3333 21.5808V15.0808C37.3333 14.2524 36.6617 13.5808 35.8333 13.5808Z" fill="white"/>
        <path fill-rule="evenodd" clip-rule="evenodd" d="M20 25.9141C20 25.0857 19.3284 24.4141 18.5 24.4141H12C11.1716 24.4141 10.5 25.0857 10.5 25.9141V32.4141C10.5 33.2425 11.1716 33.9141 12 33.9141C12.8284 33.9141 13.5 33.2425 13.5 32.4141V27.4141H18.5C19.3284 27.4141 20 26.7425 20 25.9141Z" fill="white"/>
        <path fill-rule="evenodd" clip-rule="evenodd" d="M27.0365 12.943C25.2109 12.415 23.2814 12.358 21.4279 12.7774C19.5743 13.1967 17.8573 14.0788 16.4368 15.3413C15.0164 16.6038 13.939 18.2055 13.305 19.997C13.0286 20.778 13.4377 21.6351 14.2187 21.9115C14.9997 22.1879 15.8568 21.7788 16.1332 20.9978C16.5981 19.6841 17.3882 18.5095 18.4298 17.5836C19.4715 16.6578 20.7307 16.0109 22.0899 15.7034C23.4492 15.3959 24.8642 15.4376 26.2029 15.8249C27.5416 16.2121 28.7605 16.9322 29.7457 17.9178C29.7567 17.9289 29.768 17.9398 29.7794 17.9506L34.8061 22.6739C35.4098 23.2412 36.3591 23.2117 36.9264 22.6079C37.4937 22.0042 37.4641 21.0549 36.8604 20.4876L31.8503 15.7798C30.5099 14.4446 28.8542 13.4688 27.0365 12.943ZM10.9068 24.8869C10.3395 25.4907 10.369 26.4399 10.9727 27.0072L15.9829 31.7151C17.3233 33.0503 18.9789 34.0261 20.7967 34.5519C22.6222 35.0799 24.5518 35.1369 26.4053 34.7175C28.2588 34.2981 29.9759 33.416 31.3963 32.1536C32.8167 30.8911 33.8942 29.2893 34.5282 27.4978C34.8045 26.7169 34.3954 25.8597 33.6145 25.5834C32.8335 25.307 31.9764 25.7161 31.7 26.497C31.2351 27.8108 30.445 28.9854 29.4033 29.9112C28.3617 30.8371 27.1025 31.4839 25.7432 31.7915C24.384 32.099 22.969 32.0572 21.6302 31.67C20.2915 31.2828 19.0727 30.5627 18.0875 29.577C18.0764 29.566 18.0652 29.555 18.0537 29.5443L13.0271 24.821C12.4234 24.2537 11.4741 24.2832 10.9068 24.8869Z" fill="white"/>
    </g>
    <defs>
        <filter id="filter0_d_1028_1931" x="5.5" y="8.5" width="36.8333" height="32.4949" filterUnits="userSpaceOnUse" color-interpolation-filters="sRGB">
            <feFlood flood-opacity="0" result="BackgroundImageFix"/>
            <feColorMatrix in="SourceAlpha" type="matrix" values="0 0 0 0 0 0 0 0 0 0 0 0 0 0 0 0 0 0 127 0" result="hardAlpha"/>
            <feOffset dy="1"/>
            <feGaussianBlur stdDeviation="2.5"/>
            <feComposite in2="hardAlpha" operator="out"/>
            <feColorMatrix type="matrix" values="0 0 0 0 0.189566 0 0 0 0 0.578953 0 0 0 0 0.745833 0 0 0 0.5 0"/>
            <feBlend mode="normal" in2="BackgroundImageFix" result="effect1_dropShadow_1028_1931"/>
            <feBlend mode="normal" in="SourceGraphic" in2="effect1_dropShadow_1028_1931" result="shape"/>
        </filter>
    </defs>
</svg>
