<svg width="18" height="18" viewBox="0 0 18 18" fill="none" xmlns="http://www.w3.org/2000/svg">
<g clip-path="url(#clip0_2584_3398)">
<path fill-rule="evenodd" clip-rule="evenodd" d="M15.5362 6.92617L17.6004 7.43393C17.8352 7.49264 18 7.70326 18 7.94531V10.0547C18 10.2967 17.8352 10.5074 17.6004 10.566L15.5362 11.0738C15.4183 11.4456 15.2684 11.8076 15.0877 12.1553L16.164 13.949C16.2886 14.1565 16.2556 14.4223 16.0847 14.5932L14.5933 16.0846C14.4223 16.2551 14.1561 16.288 13.949 16.1639L12.1553 15.0876C11.8077 15.2684 11.4456 15.4183 11.0738 15.5362L10.5661 17.6004C10.5074 17.8352 10.2967 18 10.0547 18H7.94531C7.70326 18 7.49264 17.8352 7.43396 17.6004L6.9262 15.5362C6.55439 15.4183 6.19235 15.2684 5.84473 15.0877L4.05102 16.164C3.84296 16.2875 3.57673 16.2561 3.40678 16.0847L1.91538 14.5933C1.74442 14.4223 1.71144 14.1565 1.83607 13.949L2.91238 12.1553C2.73161 11.8077 2.58173 11.4456 2.46382 11.0738L0.399621 10.5661C0.164812 10.5074 0 10.2967 0 10.0547V7.94531C0 7.70326 0.164812 7.49264 0.399586 7.43393L2.46379 6.92617C2.58173 6.55436 2.73157 6.19232 2.91234 5.84469L1.83604 4.05098C1.71141 3.84346 1.74438 3.57771 1.91535 3.40675L3.40675 1.91538C3.57771 1.74442 3.84346 1.71246 4.05098 1.83607L5.84469 2.91238C6.19232 2.73161 6.55436 2.58173 6.92617 2.46382L7.43393 0.399621C7.49264 0.164812 7.70326 0 7.94531 0H10.0547C10.2967 0 10.5074 0.164812 10.566 0.399586L11.0738 2.46379C11.4456 2.58173 11.8076 2.73157 12.1553 2.91234L13.949 1.83604C14.1555 1.71193 14.4217 1.74284 14.5932 1.91535L16.0846 3.40675C16.2556 3.57771 16.2886 3.84346 16.1639 4.05098L15.0876 5.84469C15.2684 6.19232 15.4183 6.55436 15.5362 6.92617ZM5 9C5 6.79451 6.79451 5 9 5C11.2055 5 13 6.79451 13 9C13 11.2055 11.2055 13 9 13C6.79451 13 5 11.2055 5 9Z" fill="black"/>
</g>
<defs>
<clipPath id="clip0_2584_3398">
<rect width="18" height="18" fill="white"/>
</clipPath>
</defs>
</svg>
